<svg xmlns="http://www.w3.org/2000/svg" width="498" height="137" viewBox="0 0 498 137">
  <g id="Group_12" data-name="Group 12" transform="translate(-186.948 -15)">
    <text id="SAMTAYLEK." transform="translate(267.948 118)" fill="#2d2c2c" font-size="50" font-family="Poppins-Bold, Poppins" font-weight="700" letter-spacing="0.2em"><tspan x="0" y="0">SAMTAYLEK</tspan><tspan y="0" fill="red" font-size="98" letter-spacing="0.5em">.</tspan></text>
    <g id="Group_11" data-name="Group 11" transform="translate(186.948 76.166)">
      <path id="Icon_awesome-angle-left" data-name="Icon awesome-angle-left" d="M.7,13.795,14.135.68a2.4,2.4,0,0,1,3.35,0l2.233,2.179a2.266,2.266,0,0,1,0,3.269L10.2,15.434l9.527,9.3a2.266,2.266,0,0,1,0,3.269L17.5,30.189a2.4,2.4,0,0,1-3.35,0L.705,17.074A2.269,2.269,0,0,1,.7,13.795Z" transform="translate(0 1.712)" fill="#191c87"/>
      <path id="Icon_awesome-angle-right" data-name="Icon awesome-angle-right" d="M19.734,17.076,6.282,30.2a2.4,2.4,0,0,1-3.352,0L.7,28.025a2.267,2.267,0,0,1,0-3.271l9.535-9.3L.706,6.152a2.267,2.267,0,0,1,0-3.271L2.933.681a2.4,2.4,0,0,1,3.352,0L19.725,13.8A2.27,2.27,0,0,1,19.734,17.076Z" transform="translate(45.994 11.268) rotate(1)" fill="#191c87"/>
      <line id="Line_6" data-name="Line 6" x2="50.138" y2="0.534" transform="translate(44.707 0.267) rotate(120)" fill="none" stroke="#ff3030" stroke-width="7"/>
    </g>
  </g>
</svg>
